<svg width="190" height="53" xmlns="http://www.w3.org/2000/svg" xmlns:xlink="http://www.w3.org/1999/xlink">
 <!-- Created with Method Draw - http://github.com/duopixel/Method-Draw/ -->
 <defs>
  <symbol id="svg_25" viewBox="0 0  190 90">
   <style>
    .heavy { font: bold 30px Roboto; }
    .Rrrrr { font: italic bold 40px Roboto; fill: #7192F1; }
    </style>
   <text class="heavy" y="35" x="40">Our</text>
   <text class="Rrrrr" y="55" x="65">Books!</text>
  </symbol>
 </defs>
 <g>
  <title>background</title>
  <rect fill="none" id="canvas_background" height="55" width="184" y="-1" x="-1"/>
  <g display="none" overflow="visible" y="0" x="0" height="100%" width="100%" id="canvasGrid">
   <rect fill="url(#gridpattern)" stroke-width="0" y="0" x="0" height="100%" width="100%"/>
  </g>
 </g>
 <g>
  <title>Layer 1</title>
  <g stroke="null" id="svg_24">
   <g stroke="null" transform="matrix(0.0876067801673591,0,0,0.0869844402419881,-2299.6808847535713,-523.8874978646298) " id="svg_5">
    <path stroke="null" id="svg_6" fill="#ff5a47" d="m26724.960876,6308.642727l-30,42.833l30,42.833l22.5,0c4.142,0 7.5,-3.358 7.5,-7.5l0,-70.667c0,-4.142 -3.358,-7.5 -7.5,-7.5l-22.5,0l0,0.001z"/>
    <path stroke="null" id="svg_7" fill="#fe8047" d="m26664.960876,6308.642727l60,0l0,85.667l-60,0l0,-85.667z"/>
    <path stroke="null" id="svg_8" fill="#a4d43b" d="m26724.960876,6192.976727l-30,42.833l30,42.833l22.5,0c4.142,0 7.5,-3.358 7.5,-7.5l0,-70.667c0,-4.142 -3.358,-7.5 -7.5,-7.5l-22.5,0l0,0.001z"/>
    <path stroke="null" id="svg_9" fill="#cce332" d="m26664.960876,6192.976727l60,0l0,85.667l-60,0l0,-85.667z"/>
    <path stroke="null" id="svg_10" fill="#fcc023" d="m26724.960876,6077.309727l-30,42.833l30,42.833l22.5,0c4.142,0 7.5,-3.358 7.5,-7.5l0,-70.666c0,-4.142 -3.358,-7.5 -7.5,-7.5l-22.5,0z"/>
    <path stroke="null" id="svg_11" fill="#fcd72b" d="m26664.960876,6077.309727l60,0l0,85.667l-60,0l0,-85.667z"/>
    <path stroke="null" id="svg_12" fill="#0f4c81" d="m26377.960876,6047.309727l120,422l-165,0l0,-377c0,-24.85 20.15,-45 45,-45z"/>
    <path stroke="null" id="svg_13" fill="#2d6aab" d="m26694.960876,6054.809727l0,369.5l-120,15l90,-392l22.5,0c4.142,0 7.5,3.358 7.5,7.5z"/>
    <path stroke="null" id="svg_14" fill="#4b88d5" d="m26664.960876,6047.309727l0,392l-287,0l0,-392l212,0l22.5,30l22.5,-30l30,0z"/>
    <path stroke="null" id="svg_15" fill="#0f4c81" d="m26694.960876,6514.309727l0,22.5c0,4.142 -3.358,7.5 -7.5,7.5l-22.5,0l-30,-60l60,30z"/>
    <path stroke="null" id="svg_16" fill="#0f4c81" d="m26694.960876,6424.309727l0,30l-60,30l30,-60l30,0z"/>
    <path stroke="null" id="svg_17" fill="#2d6aab" d="m26377.960876,6424.309727c-24.85,0 -45,20.15 -45,45l0,30c0,24.85 20.15,45 45,45l212,0l22.5,-15l22.5,15l30,0l0,-120l-287,0z"/>
    <path stroke="null" id="svg_18" fill="#fff7ba" d="m26664.960876,6454.309727l30,0c-8.29,8.29 -12.44,19.14 -12.44,30l-60,15l42.44,-45z"/>
    <path stroke="null" id="svg_19" fill="#fff04a" d="m26694.960876,6514.309727l-30,0l-42.44,-30l60,0c0,10.86 4.15,21.71 12.44,30z"/>
    <path stroke="null" id="svg_20" fill="#fff7ba" d="m26664.960876,6514.309727l-287,0c-8.28,0 -15,-6.72 -15,-15l0,-15l15,-15l259.56,0l15,15c0,10.86 4.15,21.71 12.44,30z"/>
    <path stroke="null" id="svg_21" fill="#fff" d="m26377.960876,6454.309727l287,0c-8.29,8.29 -12.44,19.14 -12.44,30l-289.56,0l0,-15c0,-8.28 6.72,-15 15,-15z"/>
    <path stroke="null" id="svg_22" fill="#404242" d="m26589.960876,6424.309727l0,120l45,0l0,-120l-22.5,-30l-22.5,30z"/>
    <path stroke="null" id="svg_23" fill="#565959" d="m26589.960876,6047.309727l45,0l0,377l-45,0l0,-377z"/>
   </g>
  </g>
  <use stroke="null" x="8.483675" y="1.98902" transform="matrix(1.4144810001346997,0,0,1.2569003105163572,-50.533721672445225,-0.9439302082098493) " xlink:href="#svg_25" id="svg_26"/>
 </g>
</svg>