<?xml version="1.0"?>
<svg xmlns="http://www.w3.org/2000/svg" id="Capa_1" enable-background="new 0 0 512 512" height="60px" viewBox="0 0 512 512" width="60px" class=""><g><g><g><path d="m436 10v372h-300c-33.14 0-60 26.86-60 60v-372c0-33.14 26.86-60 60-60z" fill="#918787" data-original="#918787" class="" style="fill:#EB7D16" data-old_color="#918787"/><path d="m406 442c0 33.14 13.43 60 30 60h-300c-33.14 0-60-26.86-60-60s26.86-60 60-60h300c-16.57 0-30 26.86-30 60z" fill="#eefaff" data-original="#EEFAFF" class="" style="fill:#FADFAE" data-old_color="#eefaff"/><path d="m331 121v60h-45v75h-60v-75h-45v-60h45v-45h60v45z" fill="#ffda8f" data-original="#FFDA8F" class="active-path" style="fill:#D7D7FF" data-old_color="#ffda8f"/></g><g><path d="m316 306h-120c-5.523 0-10 4.477-10 10s4.477 10 10 10h120c5.523 0 10-4.477 10-10s-4.477-10-10-10z" data-original="#000000" class="" style="fill:#374957" data-old_color="#000000"/><path d="m181 191h35v65c0 5.523 4.477 10 10 10h60c5.523 0 10-4.477 10-10v-65h35c5.523 0 10-4.477 10-10v-60c0-5.523-4.477-10-10-10h-35v-35c0-5.523-4.477-10-10-10h-60c-5.523 0-10 4.477-10 10v35h-35c-5.523 0-10 4.477-10 10v60c0 5.523 4.477 10 10 10zm10-60h35c5.523 0 10-4.477 10-10v-35h40v35c0 5.523 4.477 10 10 10h35v40h-35c-5.523 0-10 4.477-10 10v65h-40v-65c0-5.523-4.477-10-10-10h-35z" data-original="#000000" class="" style="fill:#374957" data-old_color="#000000"/><circle cx="256" cy="502" r="10" data-original="#000000" class="" style="fill:#374957" data-old_color="#000000"/><path d="m66 70v372c0 38.598 31.402 70 70 70h75c5.523 0 10-4.478 10-10s-4.477-10-10-10h-75c-27.57 0-50-22.43-50-50s22.43-50 50-50.01h271.47c-5.939 10.387-9.906 24.207-11.091 40.01h-260.379c-5.523 0-10 4.477-10 10s4.477 10 10 10h260.379c1.185 15.803 5.151 29.623 11.09 40h-106.469c-5.523 0-10 4.478-10 10s4.477 10 10 10h135c5.523 0 10-4.478 10-10s-4.477-10-10-10c-8.155 0-20-19.478-20-50s11.845-50 20-50c5.523 0 10-4.477 10-10v-372c0-5.523-4.477-10-10-10h-300c-38.598 0-70 31.402-70 70zm360 302h-290c-19.567 0-37.285 8.07-50 21.057v-323.057c0-27.57 22.43-50 50-50h290z" data-original="#000000" class="" style="fill:#374957" data-old_color="#000000"/></g></g></g> </svg>
